<!DOCTYPE svg PUBLIC "-//W3C//DTD SVG 1.1//EN" "http://www.w3.org/Graphics/SVG/1.1/DTD/svg11.dtd">
<!-- Uploaded to: SVG Repo, www.svgrepo.com, Transformed by: SVG Repo Mixer Tools -->
<svg width="64px" height="64px" viewBox="-3.6 -3.6 31.20 31.20" fill="none" xmlns="http://www.w3.org/2000/svg" stroke="" stroke-width="0.00024000000000000003">
<g id="SVGRepo_bgCarrier" stroke-width="0">
<rect x="-3.6" y="-3.6" width="31.20" height="31.20" rx="15.6" fill="#283347" strokewidth="0"/>
</g>
<g id="SVGRepo_tracerCarrier" stroke-linecap="round" stroke-linejoin="round"/>
<g id="SVGRepo_iconCarrier">
<path d="M12 3a1 1 0 0 1 1 1v9.586l2.293-2.293a1 1 0 0 1 1.414 1.414l-4 4a1 1 0 0 1-1.414 0l-4-4a1 1 0 1 1 1.414-1.414L11 13.586V4a1 1 0 0 1 1-1Z" fill="#fcfcfc"/>
<path d="M6 17a1 1 0 1 0-2 0v.6C4 19.482 5.518 21 7.4 21h9.2c1.882 0 3.4-1.518 3.4-3.4V17a1 1 0 1 0-2 0v.6c0 .778-.622 1.4-1.4 1.4H7.4c-.778 0-1.4-.622-1.4-1.4V17Z" fill="#fcfcfc"/>
</g>
</svg>