<svg width="80" height="80" viewBox="0 0 80 80" fill="none" xmlns="http://www.w3.org/2000/svg">
<path d="M34.2996 12.8664L6.06625 59.9997C5.48414 61.0078 5.17614 62.1507 5.17288 63.3148C5.16962 64.4788 5.47122 65.6235 6.04767 66.6348C6.62412 67.6461 7.45533 68.4889 8.45861 69.0792C9.46188 69.6696 10.6022 69.9869 11.7662 69.9997H68.2329C69.3969 69.9869 70.5373 69.6696 71.5406 69.0792C72.5438 68.4889 73.375 67.6461 73.9515 66.6348C74.5279 65.6235 74.8295 64.4788 74.8263 63.3148C74.823 62.1507 74.515 61.0078 73.9329 59.9997L45.6996 12.8664C45.1053 11.8867 44.2687 11.0768 43.2702 10.5147C42.2718 9.95253 41.1454 9.65723 39.9996 9.65723C38.8538 9.65723 37.7274 9.95253 36.7289 10.5147C35.7305 11.0768 34.8938 11.8867 34.2996 12.8664Z" stroke="#FF0505" stroke-width="4" stroke-linecap="round" stroke-linejoin="round"/>
<path d="M40 30V43.3333" stroke="#FF0505" stroke-width="4" stroke-linecap="round" stroke-linejoin="round"/>
<path d="M40 56.667H40.0333" stroke="#FF0505" stroke-width="4" stroke-linecap="round" stroke-linejoin="round"/>
</svg>
