<svg width="221" height="220" viewBox="0 0 221 220" fill="none" xmlns="http://www.w3.org/2000/svg">
<path d="M156.168 70.3998C155.671 70.3998 155.194 70.2023 154.842 69.8507C154.49 69.499 154.293 69.0221 154.293 68.5249V53.525H66.2249V68.5249C66.1233 68.9303 65.8891 69.2901 65.5596 69.5473C65.2301 69.8044 64.8241 69.944 64.4061 69.944C63.9882 69.944 63.5822 69.8044 63.2527 69.5473C62.9232 69.2901 62.689 68.9303 62.5874 68.5249V51.875C62.5874 51.3777 62.7849 50.9008 63.1366 50.5492C63.4882 50.1975 63.9651 50 64.4624 50H156.168C156.665 50 157.142 50.1975 157.494 50.5492C157.845 50.9008 158.043 51.3777 158.043 51.875V68.5811C158.028 69.0686 157.824 69.5312 157.474 69.8707C157.124 70.2103 156.656 70.4001 156.168 70.3998Z" fill="#6F6F6F"/>
<path d="M152.062 169.999H68.5124C65.857 169.999 63.3103 168.945 61.4326 167.067C59.5549 165.189 58.5 162.642 58.5 159.987V68.5814C58.5 68.0841 58.6975 67.6072 59.0492 67.2556C59.4008 66.904 59.8777 66.7064 60.375 66.7064H160.312C160.809 66.7064 161.286 66.904 161.638 67.2556C161.989 67.6072 162.187 68.0841 162.187 68.5814V159.987C162.187 161.311 161.924 162.623 161.414 163.845C160.904 165.067 160.156 166.176 159.214 167.107C158.273 168.038 157.156 168.773 155.928 169.27C154.7 169.766 153.386 170.014 152.062 169.999ZM62.0625 70.4001V159.987C62.0625 161.678 62.7341 163.299 63.9297 164.495C65.1252 165.69 66.7467 166.362 68.4374 166.362H152.062C153.753 166.362 155.374 165.69 156.57 164.495C157.765 163.299 158.437 161.678 158.437 159.987V70.4001H62.0625Z" fill="#6F6F6F"/>
<path d="M60.3187 70.4001C59.9469 70.363 59.5947 70.2155 59.3073 69.9768C59.0199 69.7381 58.8104 69.4189 58.7056 69.0602C58.6008 68.7016 58.6056 68.3198 58.7193 67.9639C58.833 67.608 59.0504 67.2942 59.3437 67.0627L70.4624 59.9377L63.6187 53.6003C63.3683 53.4632 63.1525 53.2708 62.9878 53.0377C62.8231 52.8046 62.7137 52.537 62.6681 52.2553C62.6225 51.9735 62.6418 51.685 62.7245 51.4119C62.8073 51.1387 62.9513 50.888 63.1457 50.679C63.34 50.4699 63.5795 50.308 63.8459 50.2055C64.1123 50.1031 64.3986 50.0628 64.6829 50.0878C64.9673 50.1127 65.2422 50.2023 65.4866 50.3496C65.7311 50.4969 65.9387 50.6981 66.0937 50.9378L74.6624 58.869C74.8611 59.0619 75.0146 59.2965 75.1119 59.5559C75.2091 59.8152 75.2477 60.0929 75.2249 60.369C75.1967 60.6438 75.1081 60.909 74.9655 61.1456C74.8229 61.3823 74.6297 61.5844 74.3999 61.7377L61.275 70.1189C60.9874 70.2972 60.657 70.3944 60.3187 70.4001Z" fill="#6F6F6F"/>
<path d="M160.255 70.4007C159.911 70.3984 159.573 70.3011 159.28 70.1195L146.155 61.7383C145.922 61.587 145.725 61.3857 145.579 61.149C145.434 60.9122 145.342 60.646 145.312 60.3696C145.291 60.0921 145.333 59.8135 145.433 59.5541C145.534 59.2946 145.691 59.0608 145.893 58.8696L154.293 50.9759C154.641 50.6489 155.1 50.4669 155.577 50.4669C156.055 50.4669 156.514 50.6489 156.862 50.9759C157.176 51.3354 157.342 51.8015 157.324 52.2789C157.307 52.7562 157.108 53.209 156.768 53.5446L150.112 59.9383L161.23 67.0633C161.524 67.2948 161.741 67.6086 161.855 67.9645C161.968 68.3204 161.973 68.7022 161.868 69.0608C161.764 69.4195 161.554 69.7387 161.267 69.9774C160.979 70.2161 160.627 70.3636 160.255 70.4007Z" fill="#6F6F6F"/>
<path d="M86.0437 97.4191C84.527 97.4191 83.0443 96.9693 81.7832 96.1266C80.5221 95.284 79.5392 94.0863 78.9587 92.685C78.3783 91.2838 78.2265 89.7419 78.5224 88.2543C78.8183 86.7667 79.5486 85.4003 80.6211 84.3278C81.6936 83.2553 83.06 82.5249 84.5476 82.229C86.0352 81.9331 87.5771 82.085 88.9784 82.6654C90.3796 83.2458 91.5773 84.2288 92.42 85.4899C93.2626 86.751 93.7124 88.2336 93.7124 89.7504C93.7074 91.7827 92.8979 93.7304 91.4608 95.1675C90.0237 96.6046 88.076 97.4141 86.0437 97.4191ZM86.0437 85.7191C85.2464 85.7191 84.467 85.9556 83.8041 86.3985C83.1411 86.8415 82.6244 87.4711 82.3193 88.2077C82.0142 88.9443 81.9344 89.7548 82.0899 90.5368C82.2455 91.3188 82.6294 92.0371 83.1932 92.6009C83.757 93.1646 84.4753 93.5486 85.2572 93.7041C86.0392 93.8597 86.8498 93.7798 87.5864 93.4747C88.323 93.1696 88.9526 92.6529 89.3955 91.99C89.8385 91.3271 90.0749 90.5477 90.0749 89.7504C90.07 88.6827 89.6437 87.6602 88.8887 86.9053C88.1338 86.1504 87.1113 85.7241 86.0437 85.7191Z" fill="#6F6F6F"/>
<path d="M134.531 97.419C133.013 97.4264 131.526 96.9829 130.26 96.1448C128.994 95.3067 128.005 94.1116 127.419 92.711C126.833 91.3104 126.676 89.7673 126.968 88.2773C127.259 86.7873 127.987 85.4173 129.058 84.3411C130.129 83.2648 131.495 82.5307 132.983 82.2318C134.472 81.9328 136.016 82.0825 137.419 82.6618C138.823 83.2411 140.023 84.224 140.867 85.4859C141.711 86.7478 142.162 88.232 142.162 89.7503C142.162 91.7777 141.359 93.7226 139.929 95.1596C138.499 96.5967 136.558 97.409 134.531 97.419ZM134.531 85.719C133.734 85.719 132.954 85.9555 132.291 86.3984C131.628 86.8414 131.112 87.471 130.807 88.2076C130.501 88.9442 130.422 89.7547 130.577 90.5367C130.733 91.3187 131.117 92.037 131.68 92.6008C132.244 93.1645 132.962 93.5485 133.744 93.704C134.526 93.8596 135.337 93.7797 136.074 93.4746C136.81 93.1695 137.44 92.6528 137.883 91.9899C138.326 91.327 138.562 90.5476 138.562 89.7503C138.562 88.6811 138.137 87.6558 137.381 86.8998C136.625 86.1438 135.6 85.719 134.531 85.719Z" fill="#6F6F6F"/>
<path d="M110.287 145.344C103.392 145.339 96.7805 142.604 91.8966 137.738C87.0127 132.871 84.2543 126.269 84.2246 119.375V91.7002C84.3262 91.2948 84.5604 90.9349 84.8899 90.6778C85.2194 90.4207 85.6254 90.281 86.0433 90.281C86.4613 90.281 86.8673 90.4207 87.1968 90.6778C87.5263 90.9349 87.7605 91.2948 87.8621 91.7002V119.375C88.1935 125.108 90.7044 130.497 94.8805 134.439C99.0567 138.381 104.582 140.576 110.324 140.576C116.067 140.576 121.592 138.381 125.768 134.439C129.944 130.497 132.455 125.108 132.787 119.375V91.7002C132.888 91.2948 133.123 90.9349 133.452 90.6778C133.782 90.4207 134.188 90.281 134.605 90.281C135.023 90.281 135.429 90.4207 135.759 90.6778C136.088 90.9349 136.323 91.2948 136.424 91.7002V119.375C136.394 126.282 133.626 132.896 128.726 137.764C123.826 142.633 117.194 145.358 110.287 145.344Z" fill="#6F6F6F"/>
</svg>
